<svg width="31" height="37" viewBox="0 0 31 37" fill="none" xmlns="http://www.w3.org/2000/svg">
<path d="M15.8741 0.858887C7.54617 0.858887 0.780884 7.63626 0.780884 15.979C0.780884 24.3218 7.54617 31.0991 15.8741 31.0991H16.7619V36.4356C25.3916 32.2732 30.9672 23.9838 30.9672 15.979C30.9672 7.63626 24.2019 0.858887 15.8741 0.858887ZM17.6497 26.652H14.0984V23.0944H17.6497V26.652ZM17.6497 20.4261H14.0984C14.0984 14.6449 19.4254 15.0896 19.4254 11.5319C19.4254 9.57519 17.8273 7.97424 15.8741 7.97424C13.9208 7.97424 12.3227 9.57519 12.3227 11.5319H8.77138C8.77138 7.60068 11.9498 4.41656 15.8741 4.41656C19.7983 4.41656 22.9767 7.60068 22.9767 11.5319C22.9767 15.979 17.6497 16.4237 17.6497 20.4261Z" fill="black"/>
</svg>
