<svg width="57" height="57" viewBox="0 0 57 57" fill="none" xmlns="http://www.w3.org/2000/svg">
<path d="M0 19C0 8.5066 8.50659 0 19 0H38C48.4934 0 57 8.50659 57 19V37.0769C57 47.5703 48.4934 56.0769 38 56.0769H19C8.50659 56.0769 0 47.5703 0 37.0769V19Z" fill="#E8C69E"/>
<path d="M29.5962 17.7111L26.2589 14.5386L12.0577 28.0386L26.2589 41.5386L29.5962 38.3661L18.7559 28.0386L29.5962 17.7111Z" fill="black"/>
<path d="M43.8462 17.7111L40.7175 14.5386L27.4039 28.0386L40.7175 41.5386L43.8462 38.3661L33.6834 28.0386L43.8462 17.7111Z" fill="black"/>
</svg>
