<svg width="28" height="29" viewBox="0 0 28 29" fill="none" xmlns="http://www.w3.org/2000/svg">
<path d="M20.0114 18.1101H18.7467L18.2985 17.6778C19.8674 15.8528 20.8119 13.4834 20.8119 10.9059C20.8119 5.15866 16.1532 0.5 10.4059 0.5C4.65866 0.5 0 5.15866 0 10.9059C0 16.6532 4.65866 21.3119 10.4059 21.3119C12.9834 21.3119 15.3528 20.3674 17.1778 18.7985L17.6101 19.2467V20.5114L25.6146 28.5L28 26.1146L20.0114 18.1101ZM10.4059 18.1101C6.41967 18.1101 3.20183 14.8922 3.20183 10.9059C3.20183 6.91967 6.41967 3.70183 10.4059 3.70183C14.3922 3.70183 17.6101 6.91967 17.6101 10.9059C17.6101 14.8922 14.3922 18.1101 10.4059 18.1101Z" fill="black"/>
</svg>
