<svg width="28" height="33" viewBox="0 0 28 33" fill="none" xmlns="http://www.w3.org/2000/svg">
<path d="M14 0C6.27529 0 0 6.2865 0 14.025C0 21.7635 6.27529 28.05 14 28.05H14.8235V33C22.8282 29.139 28 21.45 28 14.025C28 6.2865 21.7247 0 14 0ZM15.6471 23.925H12.3529V20.625H15.6471V23.925ZM15.6471 18.15H12.3529C12.3529 12.7875 17.2941 13.2 17.2941 9.9C17.2941 8.085 15.8118 6.6 14 6.6C12.1882 6.6 10.7059 8.085 10.7059 9.9H7.41176C7.41176 6.2535 10.36 3.3 14 3.3C17.64 3.3 20.5882 6.2535 20.5882 9.9C20.5882 14.025 15.6471 14.4375 15.6471 18.15Z" fill="black"/>
</svg>
